<?xml version="1.0" standalone="no"?>
<!DOCTYPE svg PUBLIC "-//W3C//DTD SVG 20010904//EN"
 "http://www.w3.org/TR/2001/REC-SVG-20010904/DTD/svg10.dtd">
<svg version="1.0" xmlns="http://www.w3.org/2000/svg"
 width="640.000000pt" height="1280.000000pt" viewBox="0 0 640.000000 1280.000000"
 preserveAspectRatio="xMidYMid meet">
<metadata>
Created by potrace 1.15, written by Peter Selinger 2001-2017
</metadata>
<g transform="translate(0.000000,1280.000000) scale(0.100000,-0.100000)"
fill="#000000" stroke="none">
<path d="M1818 12793 l-668 -3 0 -29 c0 -16 -6 -31 -15 -35 -12 -4 -15 -32
-15 -166 0 -136 2 -160 15 -160 20 0 20 -84 0 -179 -8 -39 -42 -219 -74 -399
-160 -875 -237 -1392 -271 -1822 -44 -537 -60 -1344 -41 -2060 21 -820 41
-1124 136 -2095 65 -660 94 -1013 116 -1410 17 -296 16 -1117 -1 -1615 -18
-512 -20 -1486 -2 -1750 20 -320 62 -873 68 -908 6 -40 9 -41 209 -92 166 -43
340 -70 443 -70 192 0 360 100 655 389 l157 154 0 1609 0 1608 25 263 c159
1646 286 2746 385 3347 62 370 251 1392 257 1387 4 -4 122 -627 177 -932 71
-393 113 -657 156 -975 89 -670 167 -1388 295 -2694 l35 -360 0 -1625 0 -1625
153 -151 c233 -231 419 -360 556 -385 29 -6 82 -10 117 -10 122 0 387 50 564
106 74 23 80 27 80 52 0 15 7 108 15 207 20 255 43 589 55 805 14 266 12 1058
-5 1605 -17 551 -19 1319 -5 1607 16 314 46 704 90 1163 127 1336 139 1501
160 2215 13 442 13 1294 0 1610 -33 801 -90 1261 -311 2472 -32 180 -66 360
-74 399 -20 92 -19 148 0 155 12 5 15 33 15 165 0 133 -3 161 -15 165 -8 4
-15 18 -15 33 l0 28 -992 6 c-545 4 -1165 6 -1377 5 -212 -2 -686 -4 -1053 -5z"/>
</g>
</svg>
